<?xml version="1.0" encoding="UTF-8" standalone="no"?>
<!-- Created with Inkscape (http://www.inkscape.org/) -->

<svg
   width="62.997066mm"
   height="60.846478mm"
   viewBox="0 0 62.997066 60.846478"
   version="1.1"
   id="svg1"
   xml:space="preserve"
   inkscape:version="1.3.2 (091e20e, 2023-11-25, custom)"
   sodipodi:docname="logo.svg"
   xmlns:inkscape="http://www.inkscape.org/namespaces/inkscape"
   xmlns:sodipodi="http://sodipodi.sourceforge.net/DTD/sodipodi-0.dtd"
   xmlns="http://www.w3.org/2000/svg"
   xmlns:svg="http://www.w3.org/2000/svg"><sodipodi:namedview
     id="namedview1"
     pagecolor="#ffffff"
     bordercolor="#000000"
     borderopacity="0.25"
     inkscape:showpageshadow="2"
     inkscape:pageopacity="0.0"
     inkscape:pagecheckerboard="true"
     inkscape:deskcolor="#d1d1d1"
     inkscape:document-units="mm"
     showgrid="true"
     inkscape:zoom="1.0520974"
     inkscape:cx="148.75049"
     inkscape:cy="217.18522"
     inkscape:window-width="1350"
     inkscape:window-height="1237"
     inkscape:window-x="3037"
     inkscape:window-y="65"
     inkscape:window-maximized="0"
     inkscape:current-layer="layer3"
     inkscape:clip-to-page="true"><inkscape:grid
       id="grid1"
       units="px"
       originx="-18.624414"
       originy="-19.949727"
       spacingx="0.99999999"
       spacingy="0.99999999"
       empcolor="#0099e5"
       empopacity="0.30196078"
       color="#4ce500"
       opacity="0.14901961"
       empspacing="10"
       dotted="false"
       gridanglex="30"
       gridanglez="30"
       visible="true" /></sodipodi:namedview><defs
     id="defs1"><inkscape:path-effect
       effect="fillet_chamfer"
       id="path-effect24"
       is_visible="true"
       lpeversion="1"
       nodesatellites_param="F,0,0,1,0,0,0,1 @ F,0,0,1,0,0,0,1 @ F,0,0,1,0,0,0,1 @ F,0,0,1,0,1.0563045,0,1 @ F,0,0,1,0,0,0,1 @ F,0,0,1,0,0,0,1 @ F,0,0,1,0,0,0,1"
       radius="0"
       unit="px"
       method="auto"
       mode="F"
       chamfer_steps="1"
       flexible="false"
       use_knot_distance="true"
       apply_no_radius="true"
       apply_with_radius="true"
       only_selected="false"
       hide_knots="false" /></defs><g
     inkscape:groupmode="layer"
     id="layer3"
     inkscape:label="Layer 3"
     style="display:inline;opacity:1"
     transform="translate(-18.624415,-19.949726)"><g
       id="g24"
       style="display:inline;fill:#620cfc;fill-opacity:1"><path
         style="display:inline;opacity:1;fill:#620cfc;fill-opacity:1;stroke-width:0.264583"
         d="m 40,61.377223 c 0,0 -0.09417,9.047476 10.219654,9.758774 10.31382,0.711298 9.780347,-9.727339 9.780347,-9.727339 5.897178,0 6.448964,0.471649 8.98945,1.284819 0.55546,0.177794 1.002653,0.779381 0.992913,1.36268 l -0.09734,5.828862 c 0,0 -18.451938,24.431184 -40.010508,0.177824 -0.711299,-0.80021 -0.363542,-8.68562 -0.363542,-8.68562 z"
         id="path2"
         sodipodi:nodetypes="cscccscc"
         inkscape:path-effect="#path-effect24"
         inkscape:original-d="m 40,61.377223 c 0,0 -0.09417,9.047476 10.219654,9.758774 10.31382,0.711298 9.780347,-9.727339 9.780347,-9.727339 6.603196,0 6.504469,0.591342 10,1.591342 l -0.114977,6.885019 c 0,0 -18.451938,24.431184 -40.010508,0.177824 -0.711299,-0.80021 -0.363542,-8.68562 -0.363542,-8.68562 z" /><path
         style="display:inline;opacity:1;fill:#620cfc;fill-opacity:1;stroke-width:0.264583"
         d="M 30,20 39.98986,20.0313 40,48.244249 c 0,0 -5.384443,1.000001 -9.999999,-1.999998 9e-6,-5e-6 -10e-6,-26.244247 -10e-6,-26.244247 z"
         id="path23"
         sodipodi:nodetypes="cccccc" /><path
         style="display:inline;opacity:1;fill:#620cfc;fill-opacity:1;stroke-width:0.264583"
         d="m 69.999999,20 h -9.999998 l 2e-6,28.53321 h 9.999998 z"
         id="path24"
         sodipodi:nodetypes="ccccc" /><path
         style="display:inline;opacity:1;fill:#620cfc;fill-opacity:1;stroke-width:0.264583"
         d="m 28.474473,30.196449 0.02815,12.490343 C 28.502672,42.708682 28.496378,45 28.496378,45 c 0,0 0.01832,2 0.24791,2.37603 C 30.93722,50.967691 40.054963,50 40.054963,50 h 0.93358 17.982501 11.028957 c 0,0 0.378541,0.03073 0.998985,0.167056 2.821274,0.619914 10.644362,3.423351 10.622449,15.450178 -0.02155,11.825643 -11.55859,14.492694 -11.55859,14.492694 L 59,80.000001 c 0,0 7.5344,-2.541964 12.5344,-10 v -3 c 0,0 -0.04796,-0.991995 -0.235981,-3.314236 C 71.000001,60 63,60 59,60 L 40.944012,60.005663 30,60 C 29.502694,59.9929 18.624415,59.670858 18.624415,45 c 0,-11.463635 6.555169,-14.16643 9.850058,-14.803551 0.998392,-0.193056 0,0 0,0 z"
         id="path3"
         sodipodi:nodetypes="cccsccccssccccscccssc" /><path
         style="fill:#620cfc;fill-opacity:1;stroke-width:0.264583"
         d="m 77.824998,30 v 9.999999 L 71.533473,40 V 30 Z"
         id="path18"
         sodipodi:nodetypes="ccccc" /><path
         style="fill:#620cfc;fill-opacity:1;stroke-width:0.264583"
         d="M 58.533211,30 V 40 H 41.444561 V 30.000001 Z"
         id="path19"
         sodipodi:nodetypes="ccccc" /><path
         style="fill:#620cfc;fill-opacity:1;stroke-width:0.264583"
         d="m 22.704166,69.999999 5.698565,2e-6 c 0,0 2.874259,6.000001 12.745979,10.109927 L 22.704166,80.000001 Z"
         id="path22"
         sodipodi:nodetypes="ccccc" /></g><path
       style="fill:#620cfc;fill-opacity:1;stroke-width:0.672093"
       d="m 131.05804,181.43483 c -4.94808,-1.05499 -12.04177,-3.68642 -15.2901,-5.67193 l -2.1843,-1.33513 V 124.91416 75.400541 l 10.18824,0.440981 c 5.60354,0.242539 13.92069,0.44098 18.48255,0.44098 h 8.2943 v 53.095308 53.09531 l -7.56104,-0.0534 c -4.15858,-0.0294 -9.52692,-0.47257 -11.92965,-0.98486 z"
       id="path25"
       transform="scale(0.26458333)" /><path
       style="fill:#620cfc;fill-opacity:1;stroke-width:0.672093"
       d="m 157.26965,132.40223 v -18.48255 h 31.9244 31.92439 v 18.48255 18.48254 h -31.92439 -31.9244 z"
       id="path26"
       transform="scale(0.26458333)" /><path
       style="fill:#620cfc;fill-opacity:1;stroke-width:0.672093"
       d="m 227.16728,129.37781 v -53.7674 h 18.48254 18.48255 v 53.7674 53.76741 h -18.48255 -18.48254 z"
       id="path27"
       transform="scale(0.26458333)" /><path
       style="fill:#620cfc;fill-opacity:1;stroke-width:0.672093"
       d="m 270.85329,132.40223 v -18.48255 h 11.42557 11.42558 v 18.48255 18.48254 h -11.42558 -11.42557 z"
       id="path28"
       transform="scale(0.26458333)" /><path
       style="fill:#620cfc;fill-opacity:1;stroke-width:0.672093"
       d="m 244.30564,302.26415 -18.8186,-0.19965 6.79024,-3.5675 c 14.50977,-7.62324 26.31636,-17.57689 35.89063,-30.25793 l 2.88861,-3.82593 -0.46303,-11.22991 c -0.25467,-6.17645 -0.72982,-12.39784 -1.05589,-13.8253 -1.7329,-7.58604 -11.55333,-11.36249 -32.62498,-12.54596 -5.91442,-0.33218 -37.02225,-0.61496 -69.12852,-0.6284 -64.85537,-0.0272 -61.95587,0.15881 -71.674868,-4.59666 -6.093416,-2.98147 -13.407365,-9.89367 -16.982313,-16.04947 -6.645106,-11.44239 -9.597272,-27.89447 -7.947535,-44.2907 1.976556,-19.64439 8.880109,-32.64617 21.674558,-40.82068 3.154903,-2.0157 12.337648,-5.83428 14.030018,-5.83428 0.35849,0 0.69084,13.43262 0.80006,32.3361 l 0.18683,32.33611 3.24271,2.93539 c 3.72621,3.37308 10.7929,5.96725 18.36979,6.74353 2.50075,0.25621 34.80275,0.49314 71.78222,0.52651 l 67.2354,0.0607 5.04069,1.91941 c 18.47431,7.03471 29.37932,20.4667 33.27071,40.98042 1.51882,8.00656 1.37418,22.19783 -0.29649,29.09044 -3.62899,14.97203 -12.93279,26.88437 -27.25114,34.89164 -4.19827,2.34781 -14.70785,6.51568 -15.65579,6.20874 -0.2666,-0.0863 -8.95309,-0.24679 -19.30331,-0.35659 z"
       id="path29"
       transform="scale(0.26458333)" /><path
       style="fill:#620cfc;fill-opacity:1;stroke-width:0.672093"
       d="m 173.39987,303.47726 c -17.80502,-3.809 -35.30864,-14.02291 -51.71456,-30.17707 -3.99465,-3.93335 -7.82976,-8.04555 -8.52245,-9.13821 -1.11263,-1.75506 -1.28756,-3.73467 -1.50057,-16.98061 l -0.24111,-14.99394 19.7292,0.1783 19.72921,0.17829 0.47242,3.78389 c 1.89243,15.15759 12.40716,26.95654 27.76065,31.15124 5.41591,1.47967 17.79935,2.07497 22.55878,1.08445 9.57411,-1.99254 17.13626,-7.84988 21.12555,-16.36302 2.32192,-4.95494 4.37029,-13.24455 4.37029,-17.68622 v -2.45493 l 8.23313,0.45355 c 9.94392,0.54778 14.58439,1.29794 21.45463,3.46825 3.29257,1.04012 5.59584,2.19029 6.24655,3.1193 0.82889,1.18341 1.03078,3.72597 1.03078,12.98196 v 11.51031 l -4.53663,5.13247 c -16.0109,18.11374 -38.44486,31.55296 -58.56009,35.08081 -7.71066,1.35231 -20.48807,1.20028 -27.63578,-0.32882 z"
       id="path30"
       transform="scale(0.26458333)" /><path
       style="fill:#620cfc;fill-opacity:1;stroke-width:0.672093"
       d="M 119.1284,302.27376 86.027844,302.09293 V 283.61672 265.1405 l 10.585458,0.0185 10.585458,0.0185 2.68837,4.06248 c 3.71885,5.61968 15.61315,16.93673 22.86366,21.75405 3.31997,2.20583 9.47614,5.75952 13.68036,7.89709 4.20422,2.13757 7.22863,3.81379 6.72092,3.72494 -0.50771,-0.0888 -15.81836,-0.24292 -34.02367,-0.34238 z"
       id="path31"
       transform="scale(0.26458333)" /></g></svg>
